<svg width="24" height="22" viewBox="0 0 24 22" fill="none" xmlns="http://www.w3.org/2000/svg">
<g clip-path="url(#clip0_81_125)">
<path d="M13.2042 0.75C12.9833 0.291667 12.5167 0 12.0042 0C11.4917 0 11.0292 0.291667 10.8042 0.75L8.125 6.2625L2.14167 7.14583C1.64167 7.22083 1.225 7.57083 1.07083 8.05C0.916667 8.52917 1.04167 9.05833 1.4 9.4125L5.74167 13.7083L4.71667 19.7792C4.63333 20.2792 4.84167 20.7875 5.25417 21.0833C5.66667 21.3792 6.2125 21.4167 6.6625 21.1792L12.0083 18.325L17.3542 21.1792C17.8042 21.4167 18.35 21.3833 18.7625 21.0833C19.175 20.7833 19.3833 20.2792 19.3 19.7792L18.2708 13.7083L22.6125 9.4125C22.9708 9.05833 23.1 8.52917 22.9417 8.05C22.7833 7.57083 22.3708 7.22083 21.8708 7.14583L15.8833 6.2625L13.2042 0.75Z" fill="url(#paint0_linear_81_125)"/>
</g>
<defs>
<linearGradient id="paint0_linear_81_125" x1="23.0083" y1="10.6679" x2="1.00598" y2="10.6679" gradientUnits="userSpaceOnUse">
<stop stop-color="#FF39BD"/>
<stop offset="1" stop-color="#DA1297"/>
</linearGradient>
<clipPath id="clip0_81_125">
<rect width="24" height="21.3333" fill="white"/>
</clipPath>
</defs>
</svg>
